<svg xmlns="http://www.w3.org/2000/svg" xmlns:xlink="http://www.w3.org/1999/xlink" width="309" zoomAndPan="magnify" viewBox="0 0 231.75 52.499999" height="70" preserveAspectRatio="xMidYMid meet" version="1.0"><defs><g/></defs><g fill="#ffffff" fill-opacity="1"><g transform="translate(3.751932, 38.240476)"><g><path d="M 25.96875 0 L 24.609375 -17.109375 L 24.4375 -17.109375 L 18.515625 -0.171875 L 14.59375 -0.171875 L 8.6875 -17.109375 L 8.5 -17.109375 L 7.140625 0 L 0.5625 0 L 3.15625 -28.875 L 10.15625 -28.875 L 16.5625 -12.21875 L 22.953125 -28.875 L 29.953125 -28.875 L 32.546875 0 Z M 25.96875 0 "/></g></g></g><g fill="#ffffff" fill-opacity="1"><g transform="translate(36.860704, 38.240476)"><g><path d="M 3.796875 -2.125 C 1.804688 -3.90625 0.8125 -6.179688 0.8125 -8.953125 C 0.8125 -11.734375 1.847656 -14.015625 3.921875 -15.796875 C 5.992188 -17.585938 8.5625 -18.484375 11.625 -18.484375 C 14.632812 -18.484375 17.171875 -17.582031 19.234375 -15.78125 C 21.296875 -13.988281 22.328125 -11.710938 22.328125 -8.953125 C 22.328125 -6.203125 21.316406 -3.929688 19.296875 -2.140625 C 17.285156 -0.359375 14.726562 0.53125 11.625 0.53125 C 8.40625 0.53125 5.796875 -0.351562 3.796875 -2.125 Z M 8.59375 -12 C 7.789062 -11.207031 7.390625 -10.191406 7.390625 -8.953125 C 7.390625 -7.722656 7.769531 -6.71875 8.53125 -5.9375 C 9.300781 -5.15625 10.316406 -4.765625 11.578125 -4.765625 C 12.796875 -4.765625 13.796875 -5.160156 14.578125 -5.953125 C 15.359375 -6.742188 15.75 -7.742188 15.75 -8.953125 C 15.75 -10.191406 15.34375 -11.207031 14.53125 -12 C 13.726562 -12.789062 12.742188 -13.1875 11.578125 -13.1875 C 10.390625 -13.1875 9.394531 -12.789062 8.59375 -12 Z M 8.59375 -12 "/></g></g></g><g fill="#ffffff" fill-opacity="1"><g transform="translate(59.994849, 38.240476)"><g><path d="M 7.9375 -17.953125 L 7.9375 -9.421875 C 7.9375 -7.640625 8.207031 -6.375 8.75 -5.625 C 9.289062 -4.882812 10.203125 -4.515625 11.484375 -4.515625 C 12.765625 -4.515625 13.671875 -4.882812 14.203125 -5.625 C 14.742188 -6.375 15.015625 -7.640625 15.015625 -9.421875 L 15.015625 -17.953125 L 21.203125 -17.953125 L 21.203125 -7.90625 C 21.203125 -4.925781 20.425781 -2.773438 18.875 -1.453125 C 17.332031 -0.128906 14.867188 0.53125 11.484375 0.53125 C 8.097656 0.53125 5.628906 -0.128906 4.078125 -1.453125 C 2.523438 -2.773438 1.75 -4.925781 1.75 -7.90625 L 1.75 -17.953125 Z M 7.9375 -17.953125 "/></g></g></g><g fill="#ffffff" fill-opacity="1"><g transform="translate(82.954, 38.240476)"><g><path d="M 2.09375 0 L 2.09375 -17.953125 L 8.296875 -17.953125 L 8.296875 -15.359375 L 8.359375 -15.359375 C 8.410156 -15.453125 8.488281 -15.566406 8.59375 -15.703125 C 8.695312 -15.847656 8.921875 -16.09375 9.265625 -16.4375 C 9.617188 -16.789062 9.992188 -17.109375 10.390625 -17.390625 C 10.785156 -17.671875 11.296875 -17.921875 11.921875 -18.140625 C 12.554688 -18.367188 13.203125 -18.484375 13.859375 -18.484375 C 14.535156 -18.484375 15.195312 -18.390625 15.84375 -18.203125 C 16.5 -18.015625 16.984375 -17.828125 17.296875 -17.640625 L 17.78125 -17.359375 L 15.1875 -12.109375 C 14.414062 -12.765625 13.34375 -13.09375 11.96875 -13.09375 C 11.21875 -13.09375 10.570312 -12.925781 10.03125 -12.59375 C 9.5 -12.269531 9.125 -11.875 8.90625 -11.40625 C 8.6875 -10.9375 8.53125 -10.539062 8.4375 -10.21875 C 8.34375 -9.894531 8.296875 -9.640625 8.296875 -9.453125 L 8.296875 0 Z M 2.09375 0 "/></g></g></g><g fill="#ffffff" fill-opacity="1"><g transform="translate(100.383353, 38.240476)"><g><path d="M 3.328125 -2.21875 C 1.648438 -4.050781 0.8125 -6.296875 0.8125 -8.953125 C 0.8125 -11.617188 1.648438 -13.875 3.328125 -15.71875 C 5.003906 -17.5625 7.140625 -18.484375 9.734375 -18.484375 C 12.109375 -18.484375 14.066406 -17.734375 15.609375 -16.234375 L 15.609375 -17.953125 L 21.8125 -17.953125 L 21.8125 0 L 15.6875 0 L 15.6875 -2.03125 L 15.609375 -2.03125 C 14.066406 -0.320312 12.109375 0.53125 9.734375 0.53125 C 7.140625 0.53125 5.003906 -0.382812 3.328125 -2.21875 Z M 8.59375 -12 C 7.789062 -11.207031 7.390625 -10.191406 7.390625 -8.953125 C 7.390625 -7.722656 7.769531 -6.71875 8.53125 -5.9375 C 9.300781 -5.15625 10.316406 -4.765625 11.578125 -4.765625 C 12.796875 -4.765625 13.796875 -5.160156 14.578125 -5.953125 C 15.359375 -6.742188 15.75 -7.742188 15.75 -8.953125 C 15.75 -10.191406 15.34375 -11.207031 14.53125 -12 C 13.726562 -12.789062 12.742188 -13.1875 11.578125 -13.1875 C 10.390625 -13.1875 9.394531 -12.789062 8.59375 -12 Z M 8.59375 -12 "/></g></g></g><g fill="#ffffff" fill-opacity="1"><g transform="translate(124.287461, 38.240476)"><g><path d="M 9.90625 -18.484375 C 10.925781 -18.484375 11.9375 -18.363281 12.9375 -18.125 C 13.945312 -17.894531 14.695312 -17.664062 15.1875 -17.4375 L 15.921875 -17.078125 L 13.890625 -13.015625 C 12.492188 -13.765625 11.164062 -14.140625 9.90625 -14.140625 C 9.207031 -14.140625 8.710938 -14.0625 8.421875 -13.90625 C 8.128906 -13.757812 7.984375 -13.476562 7.984375 -13.0625 C 7.984375 -12.96875 7.992188 -12.875 8.015625 -12.78125 C 8.035156 -12.6875 8.082031 -12.597656 8.15625 -12.515625 C 8.226562 -12.429688 8.289062 -12.359375 8.34375 -12.296875 C 8.40625 -12.242188 8.503906 -12.179688 8.640625 -12.109375 C 8.785156 -12.035156 8.894531 -11.984375 8.96875 -11.953125 C 9.050781 -11.921875 9.1875 -11.867188 9.375 -11.796875 C 9.5625 -11.722656 9.703125 -11.664062 9.796875 -11.625 C 9.890625 -11.59375 10.046875 -11.539062 10.265625 -11.46875 C 10.492188 -11.40625 10.664062 -11.363281 10.78125 -11.34375 C 11.5 -11.132812 12.125 -10.898438 12.65625 -10.640625 C 13.195312 -10.378906 13.765625 -10.023438 14.359375 -9.578125 C 14.960938 -9.140625 15.425781 -8.582031 15.75 -7.90625 C 16.070312 -7.226562 16.234375 -6.457031 16.234375 -5.59375 C 16.234375 -1.507812 13.398438 0.53125 7.734375 0.53125 C 6.453125 0.53125 5.234375 0.332031 4.078125 -0.0625 C 2.921875 -0.46875 2.085938 -0.867188 1.578125 -1.265625 L 0.8125 -1.890625 L 3.328125 -6.125 C 3.515625 -5.957031 3.757812 -5.765625 4.0625 -5.546875 C 4.363281 -5.328125 4.910156 -5.023438 5.703125 -4.640625 C 6.492188 -4.253906 7.179688 -4.0625 7.765625 -4.0625 C 9.046875 -4.0625 9.6875 -4.492188 9.6875 -5.359375 C 9.6875 -5.753906 9.523438 -6.0625 9.203125 -6.28125 C 8.878906 -6.5 8.328125 -6.75 7.546875 -7.03125 C 6.765625 -7.3125 6.148438 -7.570312 5.703125 -7.8125 C 4.585938 -8.394531 3.703125 -9.050781 3.046875 -9.78125 C 2.390625 -10.519531 2.0625 -11.492188 2.0625 -12.703125 C 2.0625 -14.523438 2.765625 -15.941406 4.171875 -16.953125 C 5.585938 -17.972656 7.5 -18.484375 9.90625 -18.484375 Z M 9.90625 -18.484375 "/></g></g></g><g fill="#ff3f4b" fill-opacity="1"><g transform="translate(136.212968, 39.528209)"><g><path d="M 1.984375 -27.234375 L 11.921875 -27.234375 C 14.691406 -27.234375 16.9375 -26.519531 18.65625 -25.09375 C 20.375 -23.664062 21.234375 -21.585938 21.234375 -18.859375 C 21.234375 -16.128906 20.363281 -13.988281 18.625 -12.4375 C 16.882812 -10.882812 14.648438 -10.109375 11.921875 -10.109375 L 8.1875 -10.109375 L 8.1875 0 L 1.984375 0 Z M 8.1875 -15.0625 L 9.9375 -15.0625 C 11.320312 -15.0625 12.457031 -15.335938 13.34375 -15.890625 C 14.238281 -16.453125 14.6875 -17.375 14.6875 -18.65625 C 14.6875 -19.957031 14.238281 -20.882812 13.34375 -21.4375 C 12.457031 -22 11.320312 -22.28125 9.9375 -22.28125 L 8.1875 -22.28125 Z M 8.1875 -15.0625 "/></g></g></g><g fill="#ff3f4b" fill-opacity="1"><g transform="translate(158.200057, 39.528209)"><g><path d="M 2.53125 -26.375 C 3.21875 -27.0625 4.035156 -27.40625 4.984375 -27.40625 C 5.929688 -27.40625 6.742188 -27.0625 7.421875 -26.375 C 8.109375 -25.695312 8.453125 -24.882812 8.453125 -23.9375 C 8.453125 -22.988281 8.109375 -22.171875 7.421875 -21.484375 C 6.742188 -20.804688 5.929688 -20.46875 4.984375 -20.46875 C 4.035156 -20.46875 3.21875 -20.804688 2.53125 -21.484375 C 1.851562 -22.171875 1.515625 -22.988281 1.515625 -23.9375 C 1.515625 -24.882812 1.851562 -25.695312 2.53125 -26.375 Z M 1.984375 -16.9375 L 1.984375 0 L 7.828125 0 L 7.828125 -16.9375 Z M 1.984375 -16.9375 "/></g></g></g><g fill="#ff3f4b" fill-opacity="1"><g transform="translate(168.170182, 39.528209)"><g><path d="M 18.359375 -16.9375 L 9.96875 -4.453125 L 17.703125 -4.453125 L 17.703125 0 L 0.171875 0 L 8.546875 -12.484375 L 1.546875 -12.484375 L 1.546875 -16.9375 Z M 18.359375 -16.9375 "/></g></g></g><g fill="#ff3f4b" fill-opacity="1"><g transform="translate(186.69083, 39.528209)"><g><path d="M 18.359375 -16.9375 L 9.96875 -4.453125 L 17.703125 -4.453125 L 17.703125 0 L 0.171875 0 L 8.546875 -12.484375 L 1.546875 -12.484375 L 1.546875 -16.9375 Z M 18.359375 -16.9375 "/></g></g></g><g fill="#ff3f4b" fill-opacity="1"><g transform="translate(205.211478, 39.528209)"><g><path d="M 3.140625 -2.09375 C 1.554688 -3.820312 0.765625 -5.941406 0.765625 -8.453125 C 0.765625 -10.960938 1.554688 -13.085938 3.140625 -14.828125 C 4.722656 -16.566406 6.734375 -17.4375 9.171875 -17.4375 C 11.421875 -17.4375 13.269531 -16.726562 14.71875 -15.3125 L 14.71875 -16.9375 L 20.5625 -16.9375 L 20.5625 0 L 14.796875 0 L 14.796875 -1.921875 L 14.71875 -1.921875 C 13.269531 -0.304688 11.421875 0.5 9.171875 0.5 C 6.734375 0.5 4.722656 -0.363281 3.140625 -2.09375 Z M 8.109375 -11.328125 C 7.347656 -10.578125 6.96875 -9.617188 6.96875 -8.453125 C 6.96875 -7.285156 7.328125 -6.332031 8.046875 -5.59375 C 8.773438 -4.851562 9.734375 -4.484375 10.921875 -4.484375 C 12.066406 -4.484375 13.007812 -4.859375 13.75 -5.609375 C 14.488281 -6.359375 14.859375 -7.304688 14.859375 -8.453125 C 14.859375 -9.617188 14.476562 -10.578125 13.71875 -11.328125 C 12.957031 -12.078125 12.023438 -12.453125 10.921875 -12.453125 C 9.804688 -12.453125 8.867188 -12.078125 8.109375 -11.328125 Z M 8.109375 -11.328125 "/></g></g></g></svg>